<?xml version="1.0" encoding="utf-8"?>
<!-- Generator: Adobe Illustrator 26.0.0, SVG Export Plug-In . SVG Version: 6.00 Build 0)  -->
<svg version="1.1" id="Layer_1" xmlns="http://www.w3.org/2000/svg" xmlns:xlink="http://www.w3.org/1999/xlink" x="0px" y="0px"
	 viewBox="0 0 251.3 260.9" style="enable-background:new 0 0 251.3 260.9;" xml:space="preserve">
<style type="text/css">
	.st0{fill:#0D0C0C;}
	.st1{fill:#FFFFFF;}
</style>
<g transform="translate(0.000000,250.000000) scale(0.100000,-0.100000)">
	<path class="st0" d="M2241.7,827.6c-106.1,41.5-554,181.6-624,261.5c-31,27-32,31-33,113c-0.1,68.5-7.7,127.9,24.5,176.3
		c24,45.7,57.2,143.3,42.4,189.7c-28,122.7,407.3,18.5,315.2,378.4c-16,61-103,142-182,169c-35,12-67,29-71,37
		c-115.8,343.4-642.5,273-825,18c-22-35-24-51-33-244c-10-210-9-227,16-255c12-14,15.3-40,1.3-64c-24.2-148.4,56.2-142.2,48.6-352
		c5-127,4-153-8-153c-126-71.7-233-125.6-535-225c-138-47-254-106-284-147c-113.7-232.2,365.4-598.2,555-691
		c248.2-142.8,639.1-173.1,910-114C1873.4-51.5,2857.6,641.8,2241.7,827.6 M1234.7,2301.1c-10.2,41.7,250.8,8.6,273,1
		c49-15,113-72,126-113c15-44,11-51-24-48c-53,4-230-27-300-54c-54.1-15.2-139.4-71.3-180-77
		C1100.8,2133.7,1163.2,2201.1,1234.7,2301.1z M897.7,1802.1c-9,0,11,244,23,289c18,63,85,134,162,171c25.6,15.3,133.8,66.6,101,23
		c-106.9-110.1-109.3-159.4-109.7-309.3C1053.4,1935.1,906.2,1814.3,897.7,1802.1z M1331.7,837.1
		c-112.6-42.3-346.3,39.9-363.4,151.5c-7.6,49.7-3,172.3-0.5,225.7c2.3,49.8,4.4,40.8,34.2,16.4c44.6-32.3,116.5-85,159.7-105.4
		c104.7-50.8,107.2-57.5,318.1,61.8c11.3,4.7,52.5,57.3,59.1,32.8c0.3-44.3,2.5-170,1.9-190.7
		C1543.5,990.6,1421.7,880.1,1331.7,837.1z M1214,1463.7c48.2,2.2,95.1-0.5,138.8-8.1c8.1-3.7,17.6-1.5,26-44.3
		c5.9-29.8,42.1-174.1-11-221.6c-57-43.5-73.5,4.7-81,57.6c-14.3,91.7,127.4,119.6-88,102c-4-4,1-16,11-27
		c30.8-36.6,33.9-176.8-43-141c-69,36.3-60.8,238.3-22.6,266.5C1161.1,1459.6,1195.2,1460.6,1214,1463.7 M1570.2,1489.9
		c-12.4-97.4-54-220.6-114.5-257.8c-23.6-26.1-37.8,167.5-56,220.8c-18.1,52.9-56.2,65.7-148.7,63.4
		c-242.9,17.7-126-269.7-206.3-244.2c-90.5,69.8-104.2,292.4-110,428c-2.7,39.4,61.3-0.6,94.7-13.2c38.7-16.8,95.5-34.7,130.7-43.9
		c66.1-25.1,87.4,56.6,132.1,14.5c49.2-32.4,180.2-64.8,262.9-74.8C1589.6,1580.4,1571.3,1509.6,1570.2,1489.9z"/>
	<path class="st0" d="M1204.9,1590c-53.4-48-17.3-45.8,45.3-29.9c29.7,1.6,83-17.7,82.3-11.5c4,4-1,16-11,27
		C1271.9,1621.5,1250.9,1621.8,1204.9,1590z"/>
</g>
<g>
	<path class="st1" d="M102,233.9c-0.8-4.5,8.6-2.1,10.7-2.7v-0.3c-17-13.4-11.3-44.8,13.5-44.8c25.5,0.1,28.8,32.2,12.7,44.7v0.3
		h8.6c3.1-0.1,3.1,5.1,0,5h-14.1c-1.3,0-2.3-1-2.3-2.3c-0.1-0.8,0.2-1.7,0.9-2.2c5.6-4.2,10.2-11.7,10.2-21.1
		c-4.1-39.5-54.5-11.4-21.2,23.4c0,1.3-1,2.3-2.3,2.3h-14.2C103.1,236.3,102,235.2,102,233.9z"/>
</g>
<path class="st0" d="M125.1,105.2c11,0.1,11,4.3,0,4.4C114.1,109.5,114.1,105.3,125.1,105.2z"/>
</svg>
